<svg width="118.741150" height="20.148193" viewBox="0 0 118.741 20.1482" fill="none" xmlns="http://www.w3.org/2000/svg" xmlns:xlink="http://www.w3.org/1999/xlink">
	<desc>
			Created with Pixso.
	</desc>
	<defs/>
	<path id="A+ Studio" d="M85.2048 19.462Q86.5533 20.1482 88.2512 20.1482Q90.0784 20.1482 91.3663 19.3147Q92.3579 18.6729 93.0298 17.5369L93.0563 17.5369L93.0563 19.9825L95.1771 19.9825L95.1771 -5.34058e-05L92.9767 -5.34058e-05L92.9767 9.12633L92.9502 9.12633Q92.2548 8.01313 91.2542 7.39067Q89.985 6.60116 88.2246 6.60116Q86.7277 6.60116 85.4998 7.17586Q84.4551 7.66477 83.6051 8.5696Q82.9638 9.25476 82.5457 10.0564Q81.7626 11.5577 81.7626 13.4675Q81.7626 15.5489 82.6762 17.0882Q83.06 17.7349 83.6051 18.2858Q84.3318 19.0177 85.2048 19.462ZM44.2149 19.488Q45.8331 20.1482 47.7207 20.1482Q49.8415 20.1482 51.4601 19.2466Q51.8951 19.0042 52.2938 18.6968Q53.1013 18.0734 53.5636 17.2551Q54.1827 16.1592 54.1827 14.7135Q54.1693 13.406 53.6172 12.3917Q53.0807 11.4059 52.0354 10.6971Q51.1406 10.1271 48.2112 8.96063Q47.0712 8.5232 46.5145 8.27135Q45.9577 8.01287 45.2751 7.59532Q44.599 7.17115 44.3406 6.6807Q44.0821 6.19024 44.0821 5.51422Q44.0979 4.71761 44.4574 4.13193Q44.6991 3.73816 45.0961 3.43974Q45.2528 3.32174 45.4204 3.22234Q46.3169 2.69081 47.5285 2.69081Q49.8151 2.69081 52.1745 4.64598L53.6128 2.77034Q51.6637 1.20003 49.4765 0.723995Q48.5251 0.516911 47.5285 0.516911Q45.7873 0.516911 44.4344 1.2417Q43.851 1.55423 43.3398 2.00152Q42.3686 2.8475 41.9533 3.91063Q41.6431 4.70485 41.6431 5.62026Q41.6431 6.60116 41.9944 7.41637Q42.3456 8.22496 42.8162 8.76843Q43.2934 9.3119 44.1484 9.82887Q45.01 10.3458 45.6727 10.6308Q46.3355 10.9158 47.3959 11.2936Q49.4307 12.0558 50.1133 12.4336Q51.116 13.016 51.4893 13.8727Q51.7106 14.3808 51.7106 14.9852Q51.7106 15.7298 51.3966 16.302Q51.1264 16.7944 50.6236 17.1591Q49.5433 17.9478 47.7472 17.9478Q47.5612 17.9478 47.3758 17.9369Q46.1015 17.862 44.8575 17.2718Q44.2478 16.9797 43.7145 16.5844Q43.0015 16.056 42.4252 15.3431L40.9074 17.1591Q42.3898 18.7434 44.2149 19.488ZM101.259 4.1926Q101.492 4.07945 101.685 3.88379Q101.925 3.64382 102.04 3.35421Q102.148 3.0839 102.148 2.77034Q102.148 2.44881 102.035 2.17438Q101.919 1.89444 101.685 1.66351Q101.492 1.46785 101.259 1.3547Q100.939 1.19957 100.545 1.19957Q100.172 1.19957 99.864 1.34042Q99.6129 1.4552 99.4046 1.66351Q99.1793 1.88882 99.065 2.16078Q98.9473 2.44083 98.9473 2.77034Q98.9473 3.09176 99.0593 3.36773Q99.1736 3.64944 99.4046 3.88379Q99.6129 4.0921 99.864 4.20688Q100.172 4.34774 100.545 4.34774Q100.939 4.34774 101.259 4.1926ZM11.8305 1.8756L18.8095 19.9825L14.4087 19.9825L13.3019 16.9139L5.53417 16.9139L4.3942 19.9825L1.38283e-05 19.9825L6.99889 1.8756L11.8305 1.8756ZM59.0628 19.4586Q59.89 20.1482 61.2922 20.1482Q62.9899 20.1482 64.3081 19.4409Q64.4051 19.3889 64.5 19.333L63.93 17.4044Q62.6774 18.0804 61.6766 18.0804Q60.9581 18.0804 60.5857 17.7214Q60.4944 17.6333 60.4239 17.5237Q60.0727 16.9669 60.0727 15.7209L60.0727 8.66239L64.447 8.66239L64.447 6.76023L60.0727 6.76023L60.0727 2.00815L57.8723 2.25337L57.8723 6.76023L56.1623 6.76023L56.1623 8.66239L57.8723 8.66239L57.8723 16.0457Q57.8723 18.4662 59.0628 19.4586ZM31.5988 9.74933L31.5988 11.8901L26.734 11.8901L26.734 17.4044L24.3746 17.4044L24.3746 11.8901L19.4899 11.8901L19.4899 9.74933L24.3746 9.74933L24.3746 4.45378L26.734 4.45378L26.734 9.74933L31.5988 9.74933ZM6.5946 13.5205L12.2414 13.5205L9.41801 5.73293L6.5946 13.5205ZM108.268 19.2276Q109.826 20.1482 111.928 20.1482Q113.869 20.1482 115.368 19.3333Q116.151 18.9076 116.812 18.2593Q117.461 17.6237 117.892 16.8643Q118.741 15.3668 118.741 13.388Q118.741 11.4003 117.888 9.89617Q117.459 9.13837 116.812 8.50332Q116.137 7.83711 115.335 7.40423Q113.849 6.60116 111.928 6.60116Q109.847 6.60116 108.3 7.50951Q107.585 7.9293 106.984 8.54309Q106.262 9.27726 105.814 10.1516Q105.081 11.5822 105.081 13.388Q105.081 15.1855 105.811 16.6096Q106.259 17.4852 106.984 18.2196Q107.571 18.8157 108.268 19.2276ZM68.8362 19.1928Q70.0722 20.1482 72.0467 20.1482Q72.7736 20.1482 73.4473 19.9588Q74.0081 19.801 74.5321 19.512Q74.9195 19.296 75.2591 19.0209Q75.9303 18.4772 76.4144 17.7026L76.4409 17.7026L76.4409 19.9825L78.6413 19.9825L78.6413 6.76023L76.4409 6.76023L76.4409 13.1692Q76.4409 15.4049 75.3448 16.742Q75.3231 16.7685 75.3009 16.7946Q74.635 17.5766 73.7928 17.9019Q73.1931 18.1334 72.504 18.1334Q71.1702 18.1334 70.3909 17.476Q70.2215 17.3331 70.0783 17.1591Q69.2763 16.1849 69.2763 14.011L69.2763 6.76023L67.0759 6.76023L67.0759 14.634Q67.0759 17.4044 68.3749 18.7763Q68.591 19.0034 68.8362 19.1928ZM101.638 6.76023L99.4378 6.76023L99.4378 19.9825L101.638 19.9825L101.638 6.76023ZM90.4885 17.7271Q89.6133 18.1334 88.5494 18.1334Q87.2524 18.1334 86.265 17.5805Q85.7236 17.2773 85.2753 16.8079Q84.8529 16.361 84.5722 15.8382Q84.016 14.8021 84.016 13.4675Q84.016 11.9214 84.6997 10.7876Q84.9656 10.3466 85.335 9.96805Q85.962 9.32212 86.7253 8.98327Q87.5676 8.60936 88.5759 8.60936Q89.6662 8.60936 90.5401 9.04423Q91.2333 9.3892 91.7904 10.0078Q92.2093 10.4706 92.4895 11.0059Q93.0563 12.0883 93.0563 13.4675Q93.0563 14.8781 92.4447 15.9349Q92.1627 16.4223 91.7506 16.8344Q91.1781 17.4069 90.4885 17.7271ZM113.849 17.7374Q112.978 18.1334 111.928 18.1334Q110.699 18.1334 109.738 17.6253Q109.125 17.3005 108.621 16.7681Q108.133 16.2479 107.83 15.6363Q107.335 14.6348 107.335 13.388Q107.335 12.1364 107.829 11.1268Q108.128 10.5164 108.607 9.99456Q109.09 9.47155 109.682 9.14601Q110.657 8.60936 111.928 8.60936Q112.953 8.60936 113.806 8.99193Q114.553 9.3268 115.169 9.95479Q115.584 10.3766 115.869 10.8735Q116.488 11.9535 116.488 13.388Q116.488 14.8133 115.873 15.8865Q115.587 16.3852 115.169 16.8079Q114.571 17.4089 113.849 17.7374Z" fill="#000000" fill-opacity="1.000000" fill-rule="evenodd"/>
</svg>
