<svg width="104.975464" height="17.812500" viewBox="0 0 104.975 17.8125" fill="none" xmlns="http://www.w3.org/2000/svg" xmlns:xlink="http://www.w3.org/1999/xlink">
	<desc>
			Created with Pixso.
	</desc>
	<defs/>
	<path id="A+ Studio" d="M75.327 17.2058Q76.5192 17.8125 78.0202 17.8125Q79.6357 17.8125 80.7742 17.0756Q81.6509 16.5082 82.2448 15.5039L82.2682 15.5039L82.2682 17.666L84.1432 17.666L84.1432 0L82.1979 0L82.1979 8.06836L82.1745 8.06836Q81.5597 7.08421 80.6751 6.53392Q79.553 5.83594 77.9968 5.83594Q76.6734 5.83594 75.5878 6.34402Q74.6642 6.77624 73.9128 7.57617Q73.3458 8.18191 72.9762 8.89058Q72.2839 10.2179 72.2839 11.9062Q72.2839 13.7464 73.0915 15.1072Q73.4309 15.6789 73.9128 16.166Q74.5552 16.813 75.327 17.2058ZM39.089 17.2288Q40.5197 17.8125 42.1884 17.8125Q44.0634 17.8125 45.4943 17.0154Q45.8789 16.8011 46.2314 16.5293Q46.9453 15.9782 47.354 15.2547Q47.9013 14.2859 47.9013 13.0078Q47.8894 11.8519 47.4014 10.9552Q46.927 10.0837 46.0029 9.45703Q45.2119 8.95312 42.622 7.92188Q41.6142 7.53516 41.122 7.3125Q40.6298 7.08398 40.0263 6.71484Q39.4287 6.33984 39.2002 5.90625Q38.9716 5.47266 38.9716 4.875Q38.9857 4.17074 39.3035 3.65296Q39.5171 3.30484 39.8681 3.04102Q40.0066 2.9367 40.1548 2.84882Q40.9474 2.37891 42.0185 2.37891Q44.04 2.37891 46.1259 4.10742L47.3974 2.44922Q45.6743 1.06096 43.7407 0.640111Q42.8995 0.457031 42.0185 0.457031Q40.4792 0.457031 39.2831 1.09779Q38.7673 1.37409 38.3154 1.76953Q37.4568 2.51744 37.0897 3.45732Q36.8154 4.15946 36.8154 4.96875Q36.8154 5.83594 37.1259 6.55664Q37.4365 7.27148 37.8525 7.75195Q38.2744 8.23242 39.0302 8.68945Q39.792 9.14648 40.3779 9.39844Q40.9638 9.65039 41.9013 9.98438Q43.7002 10.6582 44.3037 10.9922Q45.1901 11.5071 45.5201 12.2645Q45.7158 12.7137 45.7158 13.248Q45.7158 13.9063 45.4382 14.4121Q45.1993 14.8474 44.7548 15.1699Q43.7998 15.8672 42.2119 15.8672Q42.0474 15.8672 41.8835 15.8575Q40.757 15.7913 39.6572 15.2695Q39.1181 15.0113 38.6467 14.6618Q38.0163 14.1946 37.5068 13.5645L36.165 15.1699Q37.4756 16.5706 39.089 17.2288ZM89.5198 3.7066Q89.7258 3.60657 89.8963 3.43359Q90.1084 3.22144 90.2108 2.9654Q90.3064 2.72643 90.3064 2.44922Q90.3064 2.16496 90.2059 1.92234Q90.1034 1.67486 89.8963 1.4707Q89.7258 1.29773 89.5198 1.1977Q89.2374 1.06055 88.8885 1.06055Q88.5592 1.06055 88.2868 1.18506Q88.0648 1.28653 87.8806 1.4707Q87.6814 1.66989 87.5804 1.91033Q87.4763 2.15791 87.4763 2.44922Q87.4763 2.73338 87.5753 2.97736Q87.6764 3.22641 87.8806 3.43359Q88.0648 3.61776 88.2868 3.71924Q88.5592 3.84375 88.8885 3.84375Q89.2374 3.84375 89.5198 3.7066ZM10.459 1.6582L16.6289 17.666L12.7383 17.666L11.7598 14.9531L4.89258 14.9531L3.88477 17.666L0 17.666L6.1875 1.6582L10.459 1.6582ZM52.2156 17.2028Q52.947 17.8125 54.1866 17.8125Q55.6875 17.8125 56.8529 17.1872Q56.9386 17.1412 57.0225 17.0918L56.5186 15.3867Q55.4112 15.9844 54.5264 15.9844Q53.8912 15.9844 53.562 15.667Q53.4813 15.5891 53.419 15.4922Q53.1084 15 53.1084 13.8984L53.1084 7.6582L56.9756 7.6582L56.9756 5.97656L53.1084 5.97656L53.1084 1.77539L51.1631 1.99219L51.1631 5.97656L49.6514 5.97656L49.6514 7.6582L51.1631 7.6582L51.1631 14.1855Q51.1631 16.3255 52.2156 17.2028ZM27.9355 8.61914L27.9355 10.5117L23.6348 10.5117L23.6348 15.3867L21.5488 15.3867L21.5488 10.5117L17.2305 10.5117L17.2305 8.61914L21.5488 8.61914L21.5488 3.9375L23.6348 3.9375L23.6348 8.61914L27.9355 8.61914ZM5.83008 11.9531L10.8223 11.9531L8.32617 5.06836L5.83008 11.9531ZM95.7167 16.9985Q97.0938 17.8125 98.952 17.8125Q100.668 17.8125 101.993 17.0921Q102.685 16.7157 103.27 16.1426Q103.844 15.5807 104.225 14.9093Q104.975 13.5854 104.975 11.8359Q104.975 10.0787 104.222 8.74894Q103.842 8.079 103.27 7.51758Q102.673 6.92859 101.965 6.54589Q100.65 5.83594 98.952 5.83594Q97.1126 5.83594 95.7447 6.63898Q95.1125 7.01011 94.5809 7.55273Q93.943 8.20179 93.5471 8.97481Q92.8993 10.2395 92.8993 11.8359Q92.8993 13.4251 93.5441 14.684Q93.9406 15.4582 94.5809 16.1074Q95.1007 16.6344 95.7167 16.9985ZM60.856 16.9679Q61.9487 17.8125 63.6943 17.8125Q64.337 17.8125 64.9326 17.645Q65.4284 17.5055 65.8916 17.25Q66.2341 17.059 66.5343 16.8158Q67.1277 16.3352 67.5556 15.6504L67.5791 15.6504L67.5791 17.666L69.5244 17.666L69.5244 5.97656L67.5791 5.97656L67.5791 11.6426Q67.5791 13.619 66.61 14.8011Q66.5908 14.8245 66.5713 14.8477Q65.9826 15.539 65.238 15.8265Q64.7078 16.0312 64.0986 16.0312Q62.9194 16.0312 62.2305 15.4501Q62.0807 15.3237 61.9541 15.1699Q61.2451 14.3086 61.2451 12.3867L61.2451 5.97656L59.2998 5.97656L59.2998 12.9375Q59.2998 15.3867 60.4482 16.5996Q60.6393 16.8004 60.856 16.9679ZM89.8552 5.97656L87.9099 5.97656L87.9099 17.666L89.8552 17.666L89.8552 5.97656ZM79.9981 15.672Q79.2244 16.0312 78.2839 16.0312Q77.1372 16.0312 76.2643 15.5424Q75.7857 15.2744 75.3893 14.8594Q75.0159 14.4643 74.7678 14.0021Q74.2761 13.0862 74.2761 11.9062Q74.2761 10.5394 74.8805 9.53704Q75.1156 9.1472 75.4421 8.8125Q75.9964 8.24145 76.6713 7.94188Q77.4159 7.61133 78.3073 7.61133Q79.2712 7.61133 80.0438 7.99579Q80.6566 8.30076 81.1491 8.84766Q81.5194 9.25677 81.7672 9.73004Q82.2682 10.687 82.2682 11.9062Q82.2682 13.1534 81.7276 14.0876Q81.4783 14.5185 81.114 14.8828Q80.6078 15.3889 79.9981 15.672ZM100.65 15.6811Q99.8808 16.0312 98.952 16.0312Q97.8654 16.0312 97.0164 15.582Q96.4738 15.2949 96.0282 14.8242Q95.5972 14.3643 95.3296 13.8236Q94.8915 12.9382 94.8915 11.8359Q94.8915 10.7294 95.3285 9.83689Q95.5926 9.29732 96.0165 8.83594Q96.4435 8.37356 96.9665 8.08576Q97.8288 7.61133 98.952 7.61133Q99.8581 7.61133 100.613 7.94954Q101.273 8.24559 101.817 8.80078Q102.185 9.17372 102.436 9.61299Q102.983 10.5678 102.983 11.8359Q102.983 13.0961 102.44 14.0448Q102.187 14.4857 101.817 14.8594Q101.289 15.3907 100.65 15.6811Z" fill="#000000" fill-opacity="1.000000" fill-rule="evenodd"/>
</svg>
